# xmcd
#
# Track frame offsets:
#	150
#	15191
#	32249
#	46978
#	61973
#	78391
#	94438
#	109844
#	125584
#	139556
#	152922
#	166622
#	179876
#	196631
#	211193
#	225738
#	240264
#	251594
#	270284
#	288229
#
# Disc length: 4039 seconds
#
# Revision: 0
# Processed by: cddbd v1.5.2PL0 Copyright (c) Steve Scherf et al.
# Submitted via: EasyCDDAExtractor 16.0.8.2
#
DISCID=050fc514
DTITLE=Καζαντζίδης Στέλιος - Αυτή είναι η ζωή μου-Σ. Καζαντζίδης 2
DYEAR=1992
DGENRE=Λαϊκή
TTITLE0=Τώρα που φεύγω απ' τη ζωή [1958, Σ. Καζαντζίδη]
TTITLE1=Δεν σε πιστεύω [1969, Β. Βασιλειάδη-Πυθαγόρα]
TTITLE2=Εγώ ποτέ δεν αγαπώ [1958, Α. Καλδάρα-Κ. Βίρβου]
TTITLE3=Την πόρτα μη μού κλείνεις [1961, Ν. Μουρκάκου]
TTITLE4=Ένας σκύλος και μιά γυναίκα [1962, Α. Καλδάρα-Γ. Σαμολαδά]
TTITLE5=Οι βαλίτσες (Δεν θέλω το κακό σου) [1952, Ι. Παπαϊωάννου-Κ. Μάνεση]
TTITLE6=Ό,τι αγαπάω εγώ πεθαίνει [1962, Α. Καλδάρα-Γ. Σαμολαδά]
TTITLE7=Μιά παλιά ιστορία [1961, Σ. Καζαντζίδη-Κ. Βίρβου]
TTITLE8=Μιά ζωή γκρεμίσαμε [1960, Χ. Νικολόπουλου-Σ. Καζαντζίδη]
TTITLE9=Κάτω απ' το πουκάμισό μου[1975,Σ.Καζαντζίδη-Χ.Νικολ/λου-Πυθαγόρα]
TTITLE10=Απ' τα ψηλά στα χαμηλά [1958, Α. Καλδάρα-Ε. Παπαγιαννοπούλου]
TTITLE11=Όση γλύκα έχουν τα χείλη σου [1964, Α. Καλδάρα]
TTITLE12=Υπάρχω [1975, Σ. Καζαντζίδη-Χ. Νικολόπουλου-Πυθαγόρα]
TTITLE13=Την Παρασκευή το βράδυ [1972, Σ. Καζαντζίδη-Χ. Νικολ/λου-Πυθαγόρα]
TTITLE14=Ποιος θα με πληροφορήσει [1958, Α. Καλδάρα-Ε. Παπαγιαννοπούλου]
TTITLE15=Όταν βλέπετε να κλαίω [1970, Μ. Λοΐζου-Λ. Παπαδόπουλου]
TTITLE16=Μιά γυναίκα έφυγε [1974, Σ. Καζαντζίδη-Χ. Νικολόπουλου-Πυθαγόρα]
TTITLE17=Εγώ είμαι αητός [1987, Β. Βασιλειάδη-Λούλας Παπαγιαννοπούλου]
TTITLE18=Υπάρχουν και καλά παιδιά [bonus track]
TTITLE19=Αυτή η νύχτα μένει [bonus track]
EXTD=
EXTT0=
EXTT1=
EXTT2=
EXTT3=
EXTT4=
EXTT5=
EXTT6=
EXTT7=
EXTT8=
EXTT9=
EXTT10=
EXTT11=
EXTT12=
EXTT13=
EXTT14=
EXTT15=
EXTT16=
EXTT17=
EXTT18=
EXTT19=
PLAYORDER=
